<mxfile host="app.diagrams.net" modified="2023-08-23T13:53:55.810Z" agent="Mozilla/5.0 (Macintosh; Intel Mac OS X 10_15_7) AppleWebKit/537.36 (KHTML, like Gecko) Chrome/115.0.0.0 Safari/537.36" etag="HFUuF_BEwaSjIwA74cz0" version="21.6.9" type="github">
  <diagram name="페이지-1" id="EBCRiEzwZBse_Ma0ATIq">
    <mxGraphModel dx="1026" dy="575" grid="1" gridSize="10" guides="1" tooltips="1" connect="1" arrows="1" fold="1" page="1" pageScale="1" pageWidth="1654" pageHeight="2336" math="0" shadow="0">
      <root>
        <mxCell id="0" />
        <mxCell id="1" parent="0" />
        <mxCell id="PDa6-fFEPDLGDv39NDTm-1" value="ParsedTransactionWithMeta" style="rounded=0;whiteSpace=wrap;html=1;" parent="1" vertex="1">
          <mxGeometry x="210" y="40" width="180" height="30" as="geometry" />
        </mxCell>
        <mxCell id="PDa6-fFEPDLGDv39NDTm-4" value="blockTime" style="rounded=1;whiteSpace=wrap;html=1;fillColor=#dae8fc;strokeColor=#6c8ebf;" parent="1" vertex="1">
          <mxGeometry x="240" y="80" width="120" height="60" as="geometry" />
        </mxCell>
        <mxCell id="PDa6-fFEPDLGDv39NDTm-5" value="meta&lt;br&gt;" style="rounded=1;whiteSpace=wrap;html=1;fillColor=#dae8fc;strokeColor=#6c8ebf;" parent="1" vertex="1">
          <mxGeometry x="240" y="170" width="120" height="60" as="geometry" />
        </mxCell>
        <mxCell id="PDa6-fFEPDLGDv39NDTm-6" value="slot" style="rounded=1;whiteSpace=wrap;html=1;fillColor=#dae8fc;strokeColor=#6c8ebf;" parent="1" vertex="1">
          <mxGeometry x="240" y="790" width="120" height="60" as="geometry" />
        </mxCell>
        <mxCell id="PDa6-fFEPDLGDv39NDTm-7" value="transaction" style="rounded=1;whiteSpace=wrap;html=1;fillColor=#dae8fc;strokeColor=#6c8ebf;" parent="1" vertex="1">
          <mxGeometry x="240" y="890" width="120" height="60" as="geometry" />
        </mxCell>
        <mxCell id="PDa6-fFEPDLGDv39NDTm-8" value="version" style="rounded=1;whiteSpace=wrap;html=1;fillColor=#dae8fc;strokeColor=#6c8ebf;" parent="1" vertex="1">
          <mxGeometry x="240" y="1200" width="120" height="60" as="geometry" />
        </mxCell>
        <mxCell id="PDa6-fFEPDLGDv39NDTm-11" value="The unix timestamp of when the transaction was processed&lt;br&gt;&lt;br&gt;&lt;div style=&quot;text-align: left;&quot;&gt;&lt;span style=&quot;background-color: initial;&quot;&gt;code ) new Date(blockTime * 1000).toISOString();&lt;/span&gt;&lt;/div&gt;" style="text;html=1;strokeColor=none;fillColor=none;align=center;verticalAlign=middle;whiteSpace=wrap;rounded=0;" parent="1" vertex="1">
          <mxGeometry x="400" y="95" width="320" height="30" as="geometry" />
        </mxCell>
        <mxCell id="PDa6-fFEPDLGDv39NDTm-13" value="computeUnitsConsumed" style="rounded=1;whiteSpace=wrap;html=1;" parent="1" vertex="1">
          <mxGeometry x="400" y="170" width="180" height="40" as="geometry" />
        </mxCell>
        <mxCell id="PDa6-fFEPDLGDv39NDTm-16" value="computeUnitsConsumed" style="rounded=1;whiteSpace=wrap;html=1;fillColor=#d5e8d4;strokeColor=#82b366;" parent="1" vertex="1">
          <mxGeometry x="400" y="170" width="180" height="40" as="geometry" />
        </mxCell>
        <mxCell id="PDa6-fFEPDLGDv39NDTm-17" value="error" style="rounded=1;whiteSpace=wrap;html=1;fillColor=#d5e8d4;strokeColor=#82b366;" parent="1" vertex="1">
          <mxGeometry x="400" y="230" width="180" height="40" as="geometry" />
        </mxCell>
        <mxCell id="PDa6-fFEPDLGDv39NDTm-18" value="fee" style="rounded=1;whiteSpace=wrap;html=1;fillColor=#d5e8d4;strokeColor=#82b366;" parent="1" vertex="1">
          <mxGeometry x="400" y="290" width="180" height="40" as="geometry" />
        </mxCell>
        <mxCell id="PDa6-fFEPDLGDv39NDTm-19" value="innerInstructions" style="rounded=1;whiteSpace=wrap;html=1;fillColor=#d5e8d4;strokeColor=#82b366;" parent="1" vertex="1">
          <mxGeometry x="400" y="350" width="180" height="40" as="geometry" />
        </mxCell>
        <mxCell id="PDa6-fFEPDLGDv39NDTm-20" value="loadedAddress" style="rounded=1;whiteSpace=wrap;html=1;fillColor=#d5e8d4;strokeColor=#82b366;" parent="1" vertex="1">
          <mxGeometry x="400" y="410" width="180" height="40" as="geometry" />
        </mxCell>
        <mxCell id="PDa6-fFEPDLGDv39NDTm-21" value="logMessage" style="rounded=1;whiteSpace=wrap;html=1;fillColor=#d5e8d4;strokeColor=#82b366;" parent="1" vertex="1">
          <mxGeometry x="400" y="470" width="180" height="40" as="geometry" />
        </mxCell>
        <mxCell id="PDa6-fFEPDLGDv39NDTm-22" value="postBalances" style="rounded=1;whiteSpace=wrap;html=1;fillColor=#d5e8d4;strokeColor=#82b366;" parent="1" vertex="1">
          <mxGeometry x="400" y="530" width="180" height="40" as="geometry" />
        </mxCell>
        <mxCell id="PDa6-fFEPDLGDv39NDTm-23" value="postTokenBalances" style="rounded=1;whiteSpace=wrap;html=1;fillColor=#d5e8d4;strokeColor=#82b366;" parent="1" vertex="1">
          <mxGeometry x="400" y="590" width="180" height="40" as="geometry" />
        </mxCell>
        <mxCell id="PDa6-fFEPDLGDv39NDTm-24" value="preBalances" style="rounded=1;whiteSpace=wrap;html=1;fillColor=#d5e8d4;strokeColor=#82b366;" parent="1" vertex="1">
          <mxGeometry x="400" y="650" width="180" height="40" as="geometry" />
        </mxCell>
        <mxCell id="PDa6-fFEPDLGDv39NDTm-25" value="preTokenBalances" style="rounded=1;whiteSpace=wrap;html=1;fillColor=#d5e8d4;strokeColor=#82b366;" parent="1" vertex="1">
          <mxGeometry x="400" y="710" width="180" height="40" as="geometry" />
        </mxCell>
        <mxCell id="PDa6-fFEPDLGDv39NDTm-36" value="index" style="rounded=1;whiteSpace=wrap;html=1;fillColor=#fff2cc;strokeColor=#d6b656;" parent="1" vertex="1">
          <mxGeometry x="620" y="350" width="120" height="40" as="geometry" />
        </mxCell>
        <mxCell id="PDa6-fFEPDLGDv39NDTm-37" value="instructions" style="rounded=1;whiteSpace=wrap;html=1;fillColor=#fff2cc;strokeColor=#d6b656;" parent="1" vertex="1">
          <mxGeometry x="620" y="410" width="120" height="40" as="geometry" />
        </mxCell>
        <mxCell id="PDa6-fFEPDLGDv39NDTm-38" value="ParsedInstructions" style="swimlane;whiteSpace=wrap;html=1;swimlaneLine=1;fillColor=#ffe6cc;strokeColor=#d79b00;" parent="1" vertex="1">
          <mxGeometry x="780" y="410" width="170" height="90" as="geometry" />
        </mxCell>
        <mxCell id="PDa6-fFEPDLGDv39NDTm-39" value="parsed&lt;br&gt;program&lt;br&gt;programId" style="text;html=1;align=left;verticalAlign=middle;resizable=0;points=[];autosize=1;strokeColor=none;fillColor=none;swimlaneLine=1;" parent="PDa6-fFEPDLGDv39NDTm-38" vertex="1">
          <mxGeometry x="10" y="30" width="80" height="60" as="geometry" />
        </mxCell>
        <mxCell id="PDa6-fFEPDLGDv39NDTm-40" value="PartiallyDecodedInstruction" style="swimlane;whiteSpace=wrap;html=1;swimlaneLine=1;fillColor=#ffe6cc;strokeColor=#d79b00;" parent="1" vertex="1">
          <mxGeometry x="780" y="520" width="170" height="90" as="geometry" />
        </mxCell>
        <mxCell id="PDa6-fFEPDLGDv39NDTm-41" value="accounts&lt;br&gt;data&lt;br&gt;programId" style="text;html=1;align=left;verticalAlign=middle;resizable=0;points=[];autosize=1;strokeColor=none;fillColor=none;swimlaneLine=1;" parent="PDa6-fFEPDLGDv39NDTm-40" vertex="1">
          <mxGeometry x="10" y="30" width="80" height="60" as="geometry" />
        </mxCell>
        <mxCell id="PDa6-fFEPDLGDv39NDTm-42" value="The slot during which the transaction was processed" style="text;html=1;strokeColor=none;fillColor=none;align=left;verticalAlign=middle;whiteSpace=wrap;rounded=0;" parent="1" vertex="1">
          <mxGeometry x="400" y="805" width="320" height="30" as="geometry" />
        </mxCell>
        <mxCell id="PDa6-fFEPDLGDv39NDTm-43" value="message" style="rounded=1;whiteSpace=wrap;html=1;fillColor=#d5e8d4;strokeColor=#82b366;" parent="1" vertex="1">
          <mxGeometry x="400" y="890" width="180" height="40" as="geometry" />
        </mxCell>
        <mxCell id="PDa6-fFEPDLGDv39NDTm-44" value="signatures" style="rounded=1;whiteSpace=wrap;html=1;fillColor=#d5e8d4;strokeColor=#82b366;" parent="1" vertex="1">
          <mxGeometry x="400" y="1120" width="180" height="40" as="geometry" />
        </mxCell>
        <mxCell id="PDa6-fFEPDLGDv39NDTm-45" value="accountKeys" style="rounded=1;whiteSpace=wrap;html=1;fillColor=#fff2cc;strokeColor=#d6b656;" parent="1" vertex="1">
          <mxGeometry x="620" y="890" width="180" height="40" as="geometry" />
        </mxCell>
        <mxCell id="PDa6-fFEPDLGDv39NDTm-46" value="addressTableLookups" style="rounded=1;whiteSpace=wrap;html=1;fillColor=#fff2cc;strokeColor=#d6b656;" parent="1" vertex="1">
          <mxGeometry x="620" y="950" width="180" height="40" as="geometry" />
        </mxCell>
        <mxCell id="PDa6-fFEPDLGDv39NDTm-47" value="instructions" style="rounded=1;whiteSpace=wrap;html=1;fillColor=#fff2cc;strokeColor=#d6b656;" parent="1" vertex="1">
          <mxGeometry x="620" y="1010" width="180" height="40" as="geometry" />
        </mxCell>
        <mxCell id="PDa6-fFEPDLGDv39NDTm-48" value="recentBlockhash" style="rounded=1;whiteSpace=wrap;html=1;fillColor=#fff2cc;strokeColor=#d6b656;" parent="1" vertex="1">
          <mxGeometry x="620" y="1070" width="180" height="40" as="geometry" />
        </mxCell>
        <mxCell id="PDa6-fFEPDLGDv39NDTm-49" value="ParsedInstructions" style="swimlane;whiteSpace=wrap;html=1;swimlaneLine=1;fillColor=#ffe6cc;strokeColor=#d79b00;" parent="1" vertex="1">
          <mxGeometry x="840" y="1010" width="170" height="90" as="geometry" />
        </mxCell>
        <mxCell id="PDa6-fFEPDLGDv39NDTm-50" value="parsed&lt;br&gt;program&lt;br&gt;programId" style="text;html=1;align=left;verticalAlign=middle;resizable=0;points=[];autosize=1;strokeColor=none;fillColor=none;swimlaneLine=1;" parent="PDa6-fFEPDLGDv39NDTm-49" vertex="1">
          <mxGeometry x="10" y="30" width="80" height="60" as="geometry" />
        </mxCell>
        <mxCell id="PDa6-fFEPDLGDv39NDTm-51" value="PartiallyDecodedInstruction" style="swimlane;whiteSpace=wrap;html=1;swimlaneLine=1;fillColor=#ffe6cc;strokeColor=#d79b00;" parent="1" vertex="1">
          <mxGeometry x="840" y="1120" width="170" height="90" as="geometry" />
        </mxCell>
        <mxCell id="PDa6-fFEPDLGDv39NDTm-52" value="accounts&lt;br&gt;data&lt;br&gt;programId" style="text;html=1;align=left;verticalAlign=middle;resizable=0;points=[];autosize=1;strokeColor=none;fillColor=none;swimlaneLine=1;" parent="PDa6-fFEPDLGDv39NDTm-51" vertex="1">
          <mxGeometry x="10" y="30" width="80" height="60" as="geometry" />
        </mxCell>
        <mxCell id="PDa6-fFEPDLGDv39NDTm-54" value="" style="verticalLabelPosition=bottom;verticalAlign=top;html=1;shape=mxgraph.basic.diag_round_rect;dx=12.5;whiteSpace=wrap;fillColor=#1ba1e2;fontColor=#ffffff;strokeColor=none;fontStyle=1;fontSize=13;" parent="1" vertex="1">
          <mxGeometry x="40" y="80" width="160" height="60" as="geometry" />
        </mxCell>
        <mxCell id="PDa6-fFEPDLGDv39NDTm-55" value="getParsedTransactions" style="text;html=1;strokeColor=none;fillColor=none;align=center;verticalAlign=middle;whiteSpace=wrap;rounded=0;fontStyle=1;fontSize=14;fontColor=#FFFFFF;" parent="1" vertex="1">
          <mxGeometry x="65" y="95" width="110" height="30" as="geometry" />
        </mxCell>
        <mxCell id="HP6lbyXfiNnHVQs3nLG--3" value="" style="endArrow=none;html=1;rounded=0;exitX=1;exitY=0.5;exitDx=0;exitDy=0;exitPerimeter=0;" edge="1" parent="1" source="PDa6-fFEPDLGDv39NDTm-54">
          <mxGeometry width="50" height="50" relative="1" as="geometry">
            <mxPoint x="190" y="160" as="sourcePoint" />
            <mxPoint x="240" y="110" as="targetPoint" />
          </mxGeometry>
        </mxCell>
        <mxCell id="HP6lbyXfiNnHVQs3nLG--4" value="" style="endArrow=none;html=1;rounded=0;" edge="1" parent="1">
          <mxGeometry width="50" height="50" relative="1" as="geometry">
            <mxPoint x="210" y="1230" as="sourcePoint" />
            <mxPoint x="210" y="110" as="targetPoint" />
          </mxGeometry>
        </mxCell>
        <mxCell id="HP6lbyXfiNnHVQs3nLG--6" value="" style="endArrow=none;html=1;rounded=0;" edge="1" parent="1">
          <mxGeometry width="50" height="50" relative="1" as="geometry">
            <mxPoint x="210" y="200" as="sourcePoint" />
            <mxPoint x="240" y="200" as="targetPoint" />
          </mxGeometry>
        </mxCell>
        <mxCell id="HP6lbyXfiNnHVQs3nLG--7" value="" style="endArrow=none;html=1;rounded=0;exitX=1;exitY=0.5;exitDx=0;exitDy=0;" edge="1" parent="1" source="PDa6-fFEPDLGDv39NDTm-19">
          <mxGeometry width="50" height="50" relative="1" as="geometry">
            <mxPoint x="570" y="420" as="sourcePoint" />
            <mxPoint x="620" y="370" as="targetPoint" />
          </mxGeometry>
        </mxCell>
        <mxCell id="HP6lbyXfiNnHVQs3nLG--8" value="" style="endArrow=none;html=1;rounded=0;" edge="1" parent="1">
          <mxGeometry width="50" height="50" relative="1" as="geometry">
            <mxPoint x="600" y="430" as="sourcePoint" />
            <mxPoint x="620" y="430" as="targetPoint" />
          </mxGeometry>
        </mxCell>
        <mxCell id="HP6lbyXfiNnHVQs3nLG--9" value="" style="endArrow=none;html=1;rounded=0;" edge="1" parent="1">
          <mxGeometry width="50" height="50" relative="1" as="geometry">
            <mxPoint x="600" y="430" as="sourcePoint" />
            <mxPoint x="600" y="370" as="targetPoint" />
          </mxGeometry>
        </mxCell>
        <mxCell id="HP6lbyXfiNnHVQs3nLG--10" value="" style="endArrow=none;html=1;rounded=0;" edge="1" parent="1">
          <mxGeometry width="50" height="50" relative="1" as="geometry">
            <mxPoint x="210" y="1230" as="sourcePoint" />
            <mxPoint x="240" y="1230" as="targetPoint" />
          </mxGeometry>
        </mxCell>
        <mxCell id="HP6lbyXfiNnHVQs3nLG--11" value="" style="endArrow=none;html=1;rounded=0;" edge="1" parent="1">
          <mxGeometry width="50" height="50" relative="1" as="geometry">
            <mxPoint x="210" y="920" as="sourcePoint" />
            <mxPoint x="240" y="920" as="targetPoint" />
          </mxGeometry>
        </mxCell>
        <mxCell id="HP6lbyXfiNnHVQs3nLG--12" value="" style="endArrow=none;html=1;rounded=0;" edge="1" parent="1">
          <mxGeometry width="50" height="50" relative="1" as="geometry">
            <mxPoint x="210" y="820" as="sourcePoint" />
            <mxPoint x="240" y="820" as="targetPoint" />
          </mxGeometry>
        </mxCell>
        <mxCell id="HP6lbyXfiNnHVQs3nLG--13" value="" style="endArrow=none;html=1;rounded=0;exitX=1;exitY=0.5;exitDx=0;exitDy=0;" edge="1" parent="1" source="PDa6-fFEPDLGDv39NDTm-43">
          <mxGeometry width="50" height="50" relative="1" as="geometry">
            <mxPoint x="570" y="960" as="sourcePoint" />
            <mxPoint x="620" y="910" as="targetPoint" />
          </mxGeometry>
        </mxCell>
        <mxCell id="HP6lbyXfiNnHVQs3nLG--14" value="" style="endArrow=none;html=1;rounded=0;" edge="1" parent="1">
          <mxGeometry width="50" height="50" relative="1" as="geometry">
            <mxPoint x="590" y="1090" as="sourcePoint" />
            <mxPoint x="590" y="910" as="targetPoint" />
          </mxGeometry>
        </mxCell>
        <mxCell id="HP6lbyXfiNnHVQs3nLG--15" value="" style="endArrow=none;html=1;rounded=0;" edge="1" parent="1">
          <mxGeometry width="50" height="50" relative="1" as="geometry">
            <mxPoint x="590" y="970" as="sourcePoint" />
            <mxPoint x="620" y="970" as="targetPoint" />
          </mxGeometry>
        </mxCell>
        <mxCell id="HP6lbyXfiNnHVQs3nLG--16" value="" style="endArrow=none;html=1;rounded=0;" edge="1" parent="1">
          <mxGeometry width="50" height="50" relative="1" as="geometry">
            <mxPoint x="590" y="1030" as="sourcePoint" />
            <mxPoint x="620" y="1030" as="targetPoint" />
          </mxGeometry>
        </mxCell>
        <mxCell id="HP6lbyXfiNnHVQs3nLG--17" value="" style="endArrow=none;html=1;rounded=0;" edge="1" parent="1">
          <mxGeometry width="50" height="50" relative="1" as="geometry">
            <mxPoint x="590" y="1090" as="sourcePoint" />
            <mxPoint x="620" y="1090" as="targetPoint" />
          </mxGeometry>
        </mxCell>
        <mxCell id="HP6lbyXfiNnHVQs3nLG--18" value="" style="endArrow=none;html=1;rounded=0;exitX=1;exitY=0.5;exitDx=0;exitDy=0;" edge="1" parent="1" source="PDa6-fFEPDLGDv39NDTm-37">
          <mxGeometry width="50" height="50" relative="1" as="geometry">
            <mxPoint x="730" y="480" as="sourcePoint" />
            <mxPoint x="780" y="430" as="targetPoint" />
          </mxGeometry>
        </mxCell>
        <mxCell id="HP6lbyXfiNnHVQs3nLG--19" value="" style="endArrow=none;html=1;rounded=0;" edge="1" parent="1">
          <mxGeometry width="50" height="50" relative="1" as="geometry">
            <mxPoint x="750" y="530" as="sourcePoint" />
            <mxPoint x="750" y="430" as="targetPoint" />
          </mxGeometry>
        </mxCell>
        <mxCell id="HP6lbyXfiNnHVQs3nLG--20" value="" style="endArrow=none;html=1;rounded=0;" edge="1" parent="1">
          <mxGeometry width="50" height="50" relative="1" as="geometry">
            <mxPoint x="750" y="530" as="sourcePoint" />
            <mxPoint x="780" y="530" as="targetPoint" />
          </mxGeometry>
        </mxCell>
        <mxCell id="HP6lbyXfiNnHVQs3nLG--21" value="" style="endArrow=none;html=1;rounded=0;exitX=1;exitY=0.5;exitDx=0;exitDy=0;" edge="1" parent="1" source="PDa6-fFEPDLGDv39NDTm-47">
          <mxGeometry width="50" height="50" relative="1" as="geometry">
            <mxPoint x="790" y="1080" as="sourcePoint" />
            <mxPoint x="840" y="1030" as="targetPoint" />
          </mxGeometry>
        </mxCell>
        <mxCell id="HP6lbyXfiNnHVQs3nLG--22" value="" style="endArrow=none;html=1;rounded=0;" edge="1" parent="1">
          <mxGeometry width="50" height="50" relative="1" as="geometry">
            <mxPoint x="810" y="1130" as="sourcePoint" />
            <mxPoint x="810" y="1030" as="targetPoint" />
          </mxGeometry>
        </mxCell>
        <mxCell id="HP6lbyXfiNnHVQs3nLG--23" value="" style="endArrow=none;html=1;rounded=0;" edge="1" parent="1">
          <mxGeometry width="50" height="50" relative="1" as="geometry">
            <mxPoint x="810" y="1130" as="sourcePoint" />
            <mxPoint x="840" y="1130" as="targetPoint" />
          </mxGeometry>
        </mxCell>
        <mxCell id="HP6lbyXfiNnHVQs3nLG--25" value="" style="endArrow=none;html=1;rounded=0;" edge="1" parent="1">
          <mxGeometry width="50" height="50" relative="1" as="geometry">
            <mxPoint x="360" y="190" as="sourcePoint" />
            <mxPoint x="400" y="190" as="targetPoint" />
          </mxGeometry>
        </mxCell>
        <mxCell id="HP6lbyXfiNnHVQs3nLG--26" value="" style="endArrow=none;html=1;rounded=0;" edge="1" parent="1">
          <mxGeometry width="50" height="50" relative="1" as="geometry">
            <mxPoint x="370" y="730" as="sourcePoint" />
            <mxPoint x="370" y="190" as="targetPoint" />
          </mxGeometry>
        </mxCell>
        <mxCell id="HP6lbyXfiNnHVQs3nLG--27" value="" style="endArrow=none;html=1;rounded=0;" edge="1" parent="1">
          <mxGeometry width="50" height="50" relative="1" as="geometry">
            <mxPoint x="370" y="730" as="sourcePoint" />
            <mxPoint x="400" y="730" as="targetPoint" />
          </mxGeometry>
        </mxCell>
        <mxCell id="HP6lbyXfiNnHVQs3nLG--28" value="" style="endArrow=none;html=1;rounded=0;" edge="1" parent="1">
          <mxGeometry width="50" height="50" relative="1" as="geometry">
            <mxPoint x="360" y="910" as="sourcePoint" />
            <mxPoint x="400" y="910" as="targetPoint" />
          </mxGeometry>
        </mxCell>
        <mxCell id="HP6lbyXfiNnHVQs3nLG--29" value="" style="endArrow=none;html=1;rounded=0;" edge="1" parent="1">
          <mxGeometry width="50" height="50" relative="1" as="geometry">
            <mxPoint x="370" y="1140" as="sourcePoint" />
            <mxPoint x="370" y="910" as="targetPoint" />
          </mxGeometry>
        </mxCell>
        <mxCell id="HP6lbyXfiNnHVQs3nLG--30" value="" style="endArrow=none;html=1;rounded=0;" edge="1" parent="1">
          <mxGeometry width="50" height="50" relative="1" as="geometry">
            <mxPoint x="370" y="1140" as="sourcePoint" />
            <mxPoint x="400" y="1140" as="targetPoint" />
          </mxGeometry>
        </mxCell>
        <mxCell id="HP6lbyXfiNnHVQs3nLG--31" value="" style="endArrow=none;html=1;rounded=0;" edge="1" parent="1">
          <mxGeometry width="50" height="50" relative="1" as="geometry">
            <mxPoint x="370" y="250" as="sourcePoint" />
            <mxPoint x="400" y="250" as="targetPoint" />
          </mxGeometry>
        </mxCell>
        <mxCell id="HP6lbyXfiNnHVQs3nLG--33" value="" style="endArrow=none;html=1;rounded=0;" edge="1" parent="1">
          <mxGeometry width="50" height="50" relative="1" as="geometry">
            <mxPoint x="370" y="310" as="sourcePoint" />
            <mxPoint x="400" y="310" as="targetPoint" />
          </mxGeometry>
        </mxCell>
        <mxCell id="HP6lbyXfiNnHVQs3nLG--34" value="" style="endArrow=none;html=1;rounded=0;" edge="1" parent="1">
          <mxGeometry width="50" height="50" relative="1" as="geometry">
            <mxPoint x="370" y="370" as="sourcePoint" />
            <mxPoint x="400" y="370" as="targetPoint" />
          </mxGeometry>
        </mxCell>
        <mxCell id="HP6lbyXfiNnHVQs3nLG--35" value="" style="endArrow=none;html=1;rounded=0;" edge="1" parent="1">
          <mxGeometry width="50" height="50" relative="1" as="geometry">
            <mxPoint x="370" y="430" as="sourcePoint" />
            <mxPoint x="400" y="430" as="targetPoint" />
          </mxGeometry>
        </mxCell>
        <mxCell id="HP6lbyXfiNnHVQs3nLG--36" value="" style="endArrow=none;html=1;rounded=0;" edge="1" parent="1">
          <mxGeometry width="50" height="50" relative="1" as="geometry">
            <mxPoint x="370" y="490" as="sourcePoint" />
            <mxPoint x="400" y="490" as="targetPoint" />
          </mxGeometry>
        </mxCell>
        <mxCell id="HP6lbyXfiNnHVQs3nLG--37" value="" style="endArrow=none;html=1;rounded=0;" edge="1" parent="1">
          <mxGeometry width="50" height="50" relative="1" as="geometry">
            <mxPoint x="370" y="550" as="sourcePoint" />
            <mxPoint x="400" y="550" as="targetPoint" />
          </mxGeometry>
        </mxCell>
        <mxCell id="HP6lbyXfiNnHVQs3nLG--38" value="" style="endArrow=none;html=1;rounded=0;" edge="1" parent="1">
          <mxGeometry width="50" height="50" relative="1" as="geometry">
            <mxPoint x="370" y="610" as="sourcePoint" />
            <mxPoint x="400" y="610" as="targetPoint" />
          </mxGeometry>
        </mxCell>
        <mxCell id="HP6lbyXfiNnHVQs3nLG--39" value="" style="endArrow=none;html=1;rounded=0;" edge="1" parent="1">
          <mxGeometry width="50" height="50" relative="1" as="geometry">
            <mxPoint x="370" y="670" as="sourcePoint" />
            <mxPoint x="400" y="670" as="targetPoint" />
          </mxGeometry>
        </mxCell>
        <mxCell id="HP6lbyXfiNnHVQs3nLG--40" value="" style="endArrow=none;html=1;rounded=0;" edge="1" parent="1">
          <mxGeometry width="50" height="50" relative="1" as="geometry">
            <mxPoint x="360" y="115" as="sourcePoint" />
            <mxPoint x="390" y="115" as="targetPoint" />
          </mxGeometry>
        </mxCell>
        <mxCell id="HP6lbyXfiNnHVQs3nLG--41" value="" style="endArrow=none;html=1;rounded=0;" edge="1" parent="1">
          <mxGeometry width="50" height="50" relative="1" as="geometry">
            <mxPoint x="360" y="820" as="sourcePoint" />
            <mxPoint x="390" y="820" as="targetPoint" />
            <Array as="points">
              <mxPoint x="380" y="820" />
            </Array>
          </mxGeometry>
        </mxCell>
      </root>
    </mxGraphModel>
  </diagram>
</mxfile>
